# xmcd CD database file
#
# Track frame offsets:
#	150
#	21249
#	43901
#	67594
#	86571
#	101314
#	119285
#	132287
#	155088
#	173475
#	203048
#	225418
#	246653
#
# Disc length: 3490 seconds
#
# Revision: 0
# Processed by: cddbd v1.5.2PL0 Copyright (c) Steve Scherf et al.
# Submitted via: CDex 1.51
#
DISCID=a40da00d
DTITLE=Hasse Walli and Steve Webb - Sweet Nina
DYEAR=2005
DGENRE=Blues
TTITLE0=Smile (at me again that way)
TTITLE1=Sweet Nina
TTITLE2=Broomstick
TTITLE3=For you, my love
TTITLE4=Give and take
TTITLE5=Out in the blue
TTITLE6=Boys out of town
TTITLE7=Peace is back
TTITLE8=Walking into danger
TTITLE9=Lay me down
TTITLE10=Big red Cadillad
TTITLE11=Breakin' loose
TTITLE12=Blues on a hot day
EXTD=YEAR: 2005
EXTT0=
EXTT1=
EXTT2=
EXTT3=
EXTT4=
EXTT5=
EXTT6=
EXTT7=
EXTT8=
EXTT9=
EXTT10=
EXTT11=
EXTT12=
PLAYORDER=
